<?xml version="1.0" encoding="UTF-8" standalone="no"?>
<!-- Created with Inkscape (http://www.inkscape.org/) -->

<svg
   width="85.050003mm"
   height="84.043999mm"
   viewBox="0 0 85.050003 84.043999"
   version="1.1"
   id="svg5"
   xml:space="preserve"
   inkscape:version="1.2.2 (b0a84865, 2022-12-01)"
   sodipodi:docname="type2_temp.svg"
   xmlns:inkscape="http://www.inkscape.org/namespaces/inkscape"
   xmlns:sodipodi="http://sodipodi.sourceforge.net/DTD/sodipodi-0.dtd"
   xmlns:xlink="http://www.w3.org/1999/xlink"
   xmlns="http://www.w3.org/2000/svg"
   xmlns:svg="http://www.w3.org/2000/svg"><sodipodi:namedview
     id="namedview7"
     pagecolor="#505050"
     bordercolor="#eeeeee"
     borderopacity="1"
     inkscape:showpageshadow="0"
     inkscape:pageopacity="0"
     inkscape:pagecheckerboard="0"
     inkscape:deskcolor="#505050"
     inkscape:document-units="mm"
     showgrid="false"
     inkscape:zoom="1.9271521"
     inkscape:cx="207.30071"
     inkscape:cy="146.07046"
     inkscape:window-width="1680"
     inkscape:window-height="997"
     inkscape:window-x="131"
     inkscape:window-y="1105"
     inkscape:window-maximized="1"
     inkscape:current-layer="layer1" /><defs
     id="defs2"><marker
       id="DistanceX"
       orient="auto"
       refX="0"
       refY="0"
       style="overflow:visible"><path
         d="M 3,-3 -3,3 M 0,-5 V 5"
         style="stroke:#000000;stroke-width:0.5"
         id="path1051" /></marker><pattern
       id="Hatch"
       patternUnits="userSpaceOnUse"
       width="8"
       height="8"
       x="0"
       y="0"><path
         d="M8 4 l-4,4"
         stroke="#000000"
         stroke-width="0.25"
         linecap="square"
         id="path1054" /><path
         d="M6 2 l-4,4"
         stroke="#000000"
         stroke-width="0.25"
         linecap="square"
         id="path1056" /><path
         d="M4 0 l-4,4"
         stroke="#000000"
         stroke-width="0.25"
         linecap="square"
         id="path1058" /></pattern><symbol
       id="*MODEL_SPACE" /><symbol
       id="*PAPER_SPACE" /><marker
       id="DistanceX-7"
       orient="auto"
       refX="0"
       refY="0"
       style="overflow:visible"><path
         d="M 3,-3 -3,3 M 0,-5 V 5"
         style="stroke:#000000;stroke-width:0.5"
         id="path1106" /></marker><pattern
       id="Hatch-9"
       patternUnits="userSpaceOnUse"
       width="8"
       height="8"
       x="0"
       y="0"><path
         d="M8 4 l-4,4"
         stroke="#000000"
         stroke-width="0.25"
         linecap="square"
         id="path1109" /><path
         d="M6 2 l-4,4"
         stroke="#000000"
         stroke-width="0.25"
         linecap="square"
         id="path1111" /><path
         d="M4 0 l-4,4"
         stroke="#000000"
         stroke-width="0.25"
         linecap="square"
         id="path1113" /></pattern><symbol
       id="*MODEL_SPACE-3" /><symbol
       id="*PAPER_SPACE-8" /><marker
       id="DistanceX-0"
       orient="auto"
       refX="0"
       refY="0"
       style="overflow:visible"><path
         d="M 3,-3 -3,3 M 0,-5 V 5"
         style="stroke:#000000;stroke-width:0.5"
         id="path1164" /></marker><pattern
       id="Hatch-2"
       patternUnits="userSpaceOnUse"
       width="8"
       height="8"
       x="0"
       y="0"><path
         d="M8 4 l-4,4"
         stroke="#000000"
         stroke-width="0.25"
         linecap="square"
         id="path1167" /><path
         d="M6 2 l-4,4"
         stroke="#000000"
         stroke-width="0.25"
         linecap="square"
         id="path1169" /><path
         d="M4 0 l-4,4"
         stroke="#000000"
         stroke-width="0.25"
         linecap="square"
         id="path1171" /></pattern><symbol
       id="*MODEL_SPACE-4" /><symbol
       id="*PAPER_SPACE-83" /><marker
       id="DistanceX-9"
       orient="auto"
       refX="0"
       refY="0"
       style="overflow:visible"><path
         d="M 3,-3 -3,3 M 0,-5 V 5"
         style="stroke:#000000;stroke-width:0.5"
         id="path1216" /></marker><pattern
       id="Hatch-0"
       patternUnits="userSpaceOnUse"
       width="8"
       height="8"
       x="0"
       y="0"><path
         d="M8 4 l-4,4"
         stroke="#000000"
         stroke-width="0.25"
         linecap="square"
         id="path1219" /><path
         d="M6 2 l-4,4"
         stroke="#000000"
         stroke-width="0.25"
         linecap="square"
         id="path1221" /><path
         d="M4 0 l-4,4"
         stroke="#000000"
         stroke-width="0.25"
         linecap="square"
         id="path1223" /></pattern><symbol
       id="*MODEL_SPACE-5" /><symbol
       id="*PAPER_SPACE-2" /><marker
       id="DistanceX-2"
       orient="auto"
       refX="0"
       refY="0"
       style="overflow:visible"><path
         d="M 3,-3 -3,3 M 0,-5 V 5"
         style="stroke:#000000;stroke-width:0.5"
         id="path1274" /></marker><pattern
       id="Hatch-7"
       patternUnits="userSpaceOnUse"
       width="8"
       height="8"
       x="0"
       y="0"><path
         d="M8 4 l-4,4"
         stroke="#000000"
         stroke-width="0.25"
         linecap="square"
         id="path1277" /><path
         d="M6 2 l-4,4"
         stroke="#000000"
         stroke-width="0.25"
         linecap="square"
         id="path1279" /><path
         d="M4 0 l-4,4"
         stroke="#000000"
         stroke-width="0.25"
         linecap="square"
         id="path1281" /></pattern><symbol
       id="*MODEL_SPACE-37" /><symbol
       id="*PAPER_SPACE-9" /><marker
       id="DistanceX-02"
       orient="auto"
       refX="0"
       refY="0"
       style="overflow:visible"><path
         d="M 3,-3 -3,3 M 0,-5 V 5"
         style="stroke:#000000;stroke-width:0.5"
         id="path1338" /></marker><pattern
       id="Hatch-3"
       patternUnits="userSpaceOnUse"
       width="8"
       height="8"
       x="0"
       y="0"><path
         d="M8 4 l-4,4"
         stroke="#000000"
         stroke-width="0.25"
         linecap="square"
         id="path1341" /><path
         d="M6 2 l-4,4"
         stroke="#000000"
         stroke-width="0.25"
         linecap="square"
         id="path1343" /><path
         d="M4 0 l-4,4"
         stroke="#000000"
         stroke-width="0.25"
         linecap="square"
         id="path1345" /></pattern><symbol
       id="*MODEL_SPACE-9" /><symbol
       id="*PAPER_SPACE-97" /></defs><g
     inkscape:label="Layer 1"
     inkscape:groupmode="layer"
     id="layer1"><g
       inkscape:label="0"
       id="g1077"
       transform="matrix(-0.26458333,0,0,-0.26458333,-42.474993,355.57501)"
       style="stroke:#ff0000;stroke-width:0.188976;stroke-dasharray:none;stroke-opacity:1"><path
         d="m -179.52756,1210.1357 v 11.3385 h -18.89764 v -11.3385 z"
         style="fill:none;stroke:#ff0000;stroke-width:0.188976;stroke-dasharray:none;stroke-opacity:1"
         id="path1065" /><path
         d="m -462.99213,1221.4742 v -11.3385 h 18.89764 v 11.3385 z"
         style="fill:none;stroke:#ff0000;stroke-width:0.188976;stroke-dasharray:none;stroke-opacity:1"
         id="path1067" /><path
         d="m -340.15748,1221.4742 v -11.3385 h 37.79527 v 11.3385 z"
         style="fill:none;stroke:#ff0000;stroke-width:0.188976;stroke-dasharray:none;stroke-opacity:1"
         id="path1069" /><path
         d="m -481.88976,1207.5591 a 18.897638,18.897638 0 0 0 18.89763,18.8976 h 283.46457 a 18.897638,18.897638 0 0 0 18.89764,-18.8976 v -65.4004 h -321.25984 z"
         style="fill:none;stroke:#ff0000;stroke-width:0.188976;stroke-dasharray:none;stroke-opacity:1"
         id="path1071" /><path
         d="m -179.52756,1168.6154 h -11.33858 v -15.1181 h 11.33858 z"
         style="fill:none;stroke:#ff0000;stroke-width:0.188976;stroke-dasharray:none;stroke-opacity:1"
         id="path1073" /><path
         d="m -451.65354,1168.6154 h -11.33859 v -15.1181 h 11.33859 z"
         style="fill:none;stroke:#ff0000;stroke-width:0.188976;stroke-dasharray:none;stroke-opacity:1"
         id="path1075" /></g><g
       inkscape:label="0"
       id="g1130"
       transform="matrix(-0.26458333,0,0,-0.26458333,127.525,351.01935)"
       style="stroke:#ff0000;stroke-width:0.188976;stroke-dasharray:none;stroke-opacity:1"><path
         d="m 198.4252,1014.8031 v 13.0923 h -18.89764 v -13.0923 z"
         style="fill:none;stroke:#ff0000;stroke-width:0.188976;stroke-dasharray:none;stroke-opacity:1"
         id="path1120" /><path
         d="m 444.09449,1027.8954 v -13.0923 h 18.89764 v 13.0923 z"
         style="fill:none;stroke:#ff0000;stroke-width:0.188976;stroke-dasharray:none;stroke-opacity:1"
         id="path1122" /><path
         d="m 377.95276,1027.8954 h -22.56634 a 51.023622,51.023622 0 0 1 16.89704,37.9314 h 109.6063 v -37.7953 a 18.897638,18.897638 0 0 0 -18.89763,-18.8976 H 179.52756 a 18.897638,18.897638 0 0 0 -18.89764,18.8976 v 37.7953 h 109.6063 a 51.023622,51.023622 0 0 1 16.89704,-37.9314 h -22.56633 v -13.0923 h 113.38583 z"
         style="fill:none;stroke:#ff0000;stroke-width:0.188976;stroke-dasharray:none;stroke-opacity:1"
         id="path1124" /><path
         d="m 190.86614,1031.9677 v 14.9614 h -11.33858 v -14.9614 z"
         style="fill:none;stroke:#ff0000;stroke-width:0.188976;stroke-dasharray:none;stroke-opacity:1"
         id="path1126" /><path
         d="m 451.65354,1031.9677 h 11.33859 v 14.9614 h -11.33859 z"
         style="fill:none;stroke:#ff0000;stroke-width:0.188976;stroke-dasharray:none;stroke-opacity:1"
         id="path1128" /></g><path
       d="m 36.758355,63.089202 v 3 h 9.999999 v -3 h 27.500009 v 3 h 4.999998 v -11.65201 h -4.999998 v 1.73207 H 56.758354 v -1.73207 H 26.758355 v 1.73207 H 9.2583426 v -1.73207 H 4.2583325 v 11.65201 h 5.0000101 v -3 z"
       style="fill:none;stroke:#ff0000;stroke-width:0.05;stroke-dasharray:none;stroke-opacity:1"
       id="path1178" /><path
       d="m 34.530802,63.882187 v 3 h -3 v 4 h 3 v 10.98557 h 6.91986 l -0.53866,-0.93301 2.59807,-1.5 -1.97927,-3.42821 -2.59807,1.5 -2.5,-4.33012 2.59808,-1.5 z"
       style="fill:none;stroke:#ff0000;stroke-width:0.05;stroke-dasharray:none;stroke-opacity:1"
       id="path1230" /><path
       d="m 47.506199,63.813886 v 10.98557 h -3 v 4 h 3 v 3 l 4.50001,-7.79422 -2.59808,-1.5 2.5,-4.33013 2.59807,1.5 1.97927,-3.4282 -2.59807,-1.5 0.53866,-0.93302 z"
       style="fill:none;stroke:#ff0000;stroke-width:0.05;stroke-dasharray:none;stroke-opacity:1"
       id="path1288" /><path
       d="m 0.025,25.02498 a 5.0000001,5.0000001 0 0 0 5,5.00001 h 75.000004 a 5.0000001,5.0000001 0 0 0 5,-5.00001 V 5.02499 a 5.0000001,5.0000001 0 0 0 -5,-4.99999 H 5.025 a 5.0000001,5.0000001 0 0 0 -5,4.99999 z"
       style="fill:none;stroke:#ff0000;stroke-width:0.05;stroke-dasharray:none;stroke-opacity:1"
       id="path1352" /><image
       width="22.5"
       height="22.5"
       preserveAspectRatio="none"
       xlink:href="_qrcodeInsertHere_"
       id="image16367"
       x="5.1000772"
       y="3.6221786" /><text
       xml:space="preserve"
       style="font-style:normal;font-variant:normal;font-weight:normal;font-stretch:normal;font-size:13.8566px;line-height:1.25;font-family:Arial;-inkscape-font-specification:'Arial, Normal';font-variant-ligatures:normal;font-variant-caps:normal;font-variant-numeric:normal;font-variant-east-asian:normal;fill:#000000;fill-opacity:1;stroke:none;stroke-width:0.346415"
       x="33.895737"
       y="14.703031"
       id="text20804"><tspan
         sodipodi:role="line"
         id="tspan20802"
         style="font-style:normal;font-variant:normal;font-weight:normal;font-stretch:normal;font-size:13.8566px;font-family:Arial;-inkscape-font-specification:'Arial, Normal';font-variant-ligatures:normal;font-variant-caps:normal;font-variant-numeric:normal;font-variant-east-asian:normal;stroke-width:0.346415"
         x="33.895737"
         y="14.703031">_seatName_</tspan></text><path
       style="fill:none;stroke:#0000ff;stroke-width:0.0970218;stroke-linecap:butt;stroke-linejoin:miter;stroke-dasharray:none;stroke-opacity:1"
       d="m 34.470842,17.29211 c 45,0 45,0 45,0"
       id="path20984" /><text
       xml:space="preserve"
       style="font-style:normal;font-variant:normal;font-weight:normal;font-stretch:normal;font-size:4.23333px;line-height:1.25;font-family:Arial;-inkscape-font-specification:'Arial, Normal';font-variant-ligatures:normal;font-variant-caps:normal;font-variant-numeric:normal;font-variant-east-asian:normal;fill:#000000;fill-opacity:1;stroke:none;stroke-width:0.173207"
       x="34.371613"
       y="22.327646"
       id="text20998"><tspan
         sodipodi:role="line"
         id="tspan20996"
         style="font-style:normal;font-variant:normal;font-weight:normal;font-stretch:normal;font-size:4.23333px;font-family:Arial;-inkscape-font-specification:'Arial, Normal';font-variant-ligatures:normal;font-variant-caps:normal;font-variant-numeric:normal;font-variant-east-asian:normal;stroke-width:0.173207"
         x="34.371613"
         y="22.327646">_siteName-buildingName-roomName_</tspan></text><path
       d="m 72.491332,25.433599 q -0.145,0 -0.245,-0.1 -0.1,-0.1 -0.1,-0.245 0,-0.145 0.1,-0.25 0.1,-0.105 0.245,-0.105 0.145,0 0.25,0.105 0.105,0.105 0.105,0.25 0,0.145 -0.105,0.245 -0.105,0.1 -0.25,0.1 z m 1.285,2.799998 h -1.405 q -0.13,0 -0.2225,-0.085 -0.0925,-0.085 -0.1175,-0.215003 l -0.465,-2.324995 h 0.315 l 0.435,2.324998 h 1.46 z m 1.2,0.500002 -0.59,-1.025 h -1.57 q -0.13,0 -0.2325,-0.075 -0.1025,-0.075 -0.1275,-0.200001 l -0.235,-1.24 q -0.045,-0.23 0.115,-0.407499 0.16,-0.177501 0.4,-0.177501 0.175,0 0.3,0.112501 0.125,0.1125 0.16,0.282499 l 0.23,1.200001 h 0.83 q 0.1,0 0.175,0.06 0.075,0.06 0.125,0.145 l 0.685,1.175002 z"
       id="path21120"
       style="stroke-width:0.00500001" /><path
       d="m 77.323512,27.208599 q 0.05,-0.115 0.0825,-0.2325 0.0325,-0.1175 0.0325,-0.2425 0,-0.125 -0.03,-0.245 -0.03,-0.12 -0.09,-0.229999 l -0.28001,0.1 q 0.055,0.085 0.0775,0.18 0.0225,0.095 0.0225,0.195 0,0.1 -0.0275,0.195 -0.0275,0.095 -0.0725,0.185 z m 0.67999,0.285 q 0.08,-0.179999 0.115,-0.3725 0.035,-0.1925 0.035,-0.3875 0,-0.195 -0.035,-0.385 -0.035,-0.19 -0.115,-0.37 l -0.285,0.1 q 0.075,0.155 0.105,0.32 0.03,0.165 0.03,0.335 0,0.17 -0.0325,0.3375 -0.0325,0.167501 -0.1025,0.3225 z m 0.655,0.28 q 0.11001,-0.25 0.16001,-0.51 0.05,-0.259999 0.05,-0.53 0,-0.27 -0.05,-0.53 -0.05,-0.26 -0.16001,-0.505 l -0.28,0.11 q 0.1,0.22 0.145,0.4525 0.045,0.2325 0.045,0.4725 0,0.24 -0.045,0.475 -0.045,0.235 -0.145,0.455001 z m -0.54499,0.96 q -0.41001,0 -0.77501,-0.1575 -0.36499,-0.157501 -0.63749,-0.430001 -0.2725,-0.2725 -0.43,-0.637498 -0.15751,-0.365001 -0.15751,-0.775001 0,-0.415 0.1575,-0.78 0.15751,-0.365 0.43001,-0.635 0.2725,-0.27 0.63749,-0.4275 0.365,-0.1575 0.77501,-0.1575 0.415,0 0.78,0.1575 0.36499,0.1575 0.63499,0.4275 0.27,0.27 0.4275,0.635 0.1575,0.365 0.1575,0.78 0,0.41 -0.1575,0.775001 -0.1575,0.364998 -0.4275,0.637498 -0.27,0.2725 -0.63499,0.430001 -0.365,0.1575 -0.78,0.1575 z m 0,-0.300001 q 0.71,0 1.20499,-0.497498 0.495,-0.497501 0.495,-1.202501 0,-0.71 -0.495,-1.204999 -0.49499,-0.495001 -1.20499,-0.495001 -0.70501,0 -1.20251,0.495001 -0.4975,0.494999 -0.4975,1.204999 0,0.705 0.4975,1.202501 0.4975,0.497498 1.20251,0.497498 z m 0,-1.699999 z"
       id="path21129"
       style="stroke-width:0.00500001" /><path
       d="m 36.758355,63.089202 v 3 h 9.999999 v -3 h 27.500009 v 3 h 4.999998 v -11.65201 h -4.999998 v 1.73207 H 56.758354 v -1.73207 H 26.758355 v 1.73207 H 9.2583426 v -1.73207 H 4.2583325 v 11.65201 h 5.0000101 v -3 z"
       style="fill:none;stroke:#ff0000;stroke-width:0.05;stroke-dasharray:none;stroke-opacity:1"
       id="path15658" /></g></svg>
